<svg width="22" height="20" viewBox="0 0 22 20" fill="none" xmlns="http://www.w3.org/2000/svg">
<path d="M19.2001 0.59997H10.5334C9.42888 0.59997 8.53345 1.4954 8.53345 2.59997V5.26664H11.2001H2.53345C1.40011 5.26664 0.533447 6.1333 0.533447 7.26664V14.6C0.533447 15.7333 1.40011 16.6 2.53345 16.6H3.20011V20L7.40011 16.6H9.86678C10.9713 16.6 11.8668 15.7045 11.8668 14.6V11.9333H19.2001C20.3334 11.9333 21.2001 11.0666 21.2001 9.9333V2.59997C21.2001 1.46664 20.3334 0.59997 19.2001 0.59997ZM7.73345 13.8666L7.40011 12.8H5.33345L4.93345 13.8666H3.33345L5.53345 7.9333H7.13345L9.33345 13.8666H7.73345ZM17.8668 8.59997V9.9333C17.0001 9.9333 16.0668 9.66664 15.2668 9.26664C14.4668 9.66664 13.5334 9.86664 12.6001 9.9333L12.5334 8.59997C13.0001 8.59997 13.4668 8.5333 13.9334 8.39997C13.3334 7.79997 12.9334 7.06664 12.7334 6.26664H14.1334C14.3334 6.86664 14.7334 7.3333 15.2001 7.7333C15.9334 7.1333 16.4001 6.26664 16.4668 5.26664H12.4668V3.9333H14.4668V2.59997H15.8001V3.9333H18.0001L18.0668 4.59997C18.1334 5.99997 17.6001 7.39997 16.6001 8.39997C17.0668 8.5333 17.4668 8.59997 17.8668 8.59997Z" fill="#64748B"/>
</svg>
