<svg width="222" height="42" viewBox="0 0 222 42" fill="none" xmlns="http://www.w3.org/2000/svg">
<path d="M11.6918 32.95C10.2918 32.95 8.97676 32.705 7.74676 32.215C6.52676 31.715 5.45176 30.985 4.52176 30.025C3.60176 29.065 2.88176 27.89 2.36176 26.5C1.84176 25.1 1.58176 23.5 1.58176 21.7C1.58176 19.34 2.02176 17.325 2.90176 15.655C3.78176 13.975 4.98676 12.69 6.51676 11.8C8.04676 10.9 9.77176 10.45 11.6918 10.45C14.3518 10.45 16.4568 11.07 18.0068 12.31C19.5668 13.54 20.6218 15.27 21.1718 17.5L17.4818 18.085C17.0718 16.805 16.4018 15.785 15.4718 15.025C14.5418 14.255 13.3568 13.87 11.9168 13.87C10.4668 13.85 9.26176 14.165 8.30176 14.815C7.34176 15.465 6.61676 16.38 6.12676 17.56C5.64676 18.74 5.40676 20.12 5.40676 21.7C5.40676 23.28 5.64676 24.655 6.12676 25.825C6.60676 26.985 7.32676 27.89 8.28676 28.54C9.25676 29.19 10.4668 29.525 11.9168 29.545C13.0068 29.555 13.9618 29.36 14.7818 28.96C15.6018 28.55 16.2718 27.935 16.7918 27.115C17.3118 26.285 17.6618 25.25 17.8418 24.01H14.0318V21.175H21.6818C21.7018 21.335 21.7168 21.57 21.7268 21.88C21.7368 22.19 21.7418 22.375 21.7418 22.435C21.7418 24.475 21.3368 26.29 20.5268 27.88C19.7268 29.46 18.5768 30.7 17.0768 31.6C15.5768 32.5 13.7818 32.95 11.6918 32.95ZM32.1194 32.95C30.4794 32.95 29.0394 32.595 27.7994 31.885C26.5594 31.175 25.5894 30.19 24.8894 28.93C24.1994 27.67 23.8544 26.22 23.8544 24.58C23.8544 22.81 24.1944 21.275 24.8744 19.975C25.5544 18.665 26.4994 17.65 27.7094 16.93C28.9194 16.21 30.3194 15.85 31.9094 15.85C33.5894 15.85 35.0144 16.245 36.1844 17.035C37.3644 17.815 38.2394 18.92 38.8094 20.35C39.3794 21.78 39.5944 23.465 39.4544 25.405H35.8694V24.085C35.8594 22.325 35.5494 21.04 34.9394 20.23C34.3294 19.42 33.3694 19.015 32.0594 19.015C30.5794 19.015 29.4794 19.475 28.7594 20.395C28.0394 21.305 27.6794 22.64 27.6794 24.4C27.6794 26.04 28.0394 27.31 28.7594 28.21C29.4794 29.11 30.5294 29.56 31.9094 29.56C32.7994 29.56 33.5644 29.365 34.2044 28.975C34.8544 28.575 35.3544 28 35.7044 27.25L39.2744 28.33C38.6544 29.79 37.6944 30.925 36.3944 31.735C35.1044 32.545 33.6794 32.95 32.1194 32.95ZM26.5394 25.405V22.675H37.6844V25.405H26.5394ZM53.5668 32.5V24.7C53.5668 24.19 53.5318 23.625 53.4618 23.005C53.3918 22.385 53.2268 21.79 52.9668 21.22C52.7168 20.64 52.3368 20.165 51.8268 19.795C51.3268 19.425 50.6468 19.24 49.7868 19.24C49.3268 19.24 48.8718 19.315 48.4218 19.465C47.9718 19.615 47.5618 19.875 47.1918 20.245C46.8318 20.605 46.5418 21.105 46.3218 21.745C46.1018 22.375 45.9918 23.185 45.9918 24.175L43.8468 23.26C43.8468 21.88 44.1118 20.63 44.6418 19.51C45.1818 18.39 45.9718 17.5 47.0118 16.84C48.0518 16.17 49.3318 15.835 50.8518 15.835C52.0518 15.835 53.0418 16.035 53.8218 16.435C54.6018 16.835 55.2218 17.345 55.6818 17.965C56.1418 18.585 56.4818 19.245 56.7018 19.945C56.9218 20.645 57.0618 21.31 57.1218 21.94C57.1918 22.56 57.2268 23.065 57.2268 23.455V32.5H53.5668ZM42.3318 32.5V16.3H45.5568V21.325H45.9918V32.5H42.3318ZM61.4411 13.84V10.525H65.0561V13.84H61.4411ZM61.4411 32.5V16.3H65.0561V32.5H61.4411ZM67.7493 32.5L73.6743 24.31L67.8693 16.3H72.1293L75.7743 21.475L79.3593 16.3H83.6193L77.8143 24.31L83.7693 32.5H79.5093L75.7743 27.145L72.0093 32.5H67.7493ZM90.6665 32.5L97.4765 10.9H102.772L109.582 32.5H105.862L99.6815 13.12H100.492L94.3865 32.5H90.6665ZM94.4615 27.82V24.445H105.802V27.82H94.4615ZM118.368 32.965C117.168 32.965 116.178 32.765 115.398 32.365C114.618 31.965 113.998 31.455 113.538 30.835C113.078 30.215 112.738 29.555 112.518 28.855C112.298 28.155 112.153 27.495 112.083 26.875C112.023 26.245 111.993 25.735 111.993 25.345V16.3H115.653V24.1C115.653 24.6 115.688 25.165 115.758 25.795C115.828 26.415 115.988 27.015 116.238 27.595C116.498 28.165 116.878 28.635 117.378 29.005C117.888 29.375 118.573 29.56 119.433 29.56C119.893 29.56 120.348 29.485 120.798 29.335C121.248 29.185 121.653 28.93 122.013 28.57C122.383 28.2 122.678 27.695 122.898 27.055C123.118 26.415 123.228 25.605 123.228 24.625L125.373 25.54C125.373 26.92 125.103 28.17 124.563 29.29C124.033 30.41 123.248 31.305 122.208 31.975C121.168 32.635 119.888 32.965 118.368 32.965ZM123.663 32.5V27.475H123.228V16.3H126.858V32.5H123.663ZM138.108 32.95C136.438 32.95 135.013 32.58 133.833 31.84C132.653 31.09 131.748 30.07 131.118 28.78C130.498 27.49 130.183 26.03 130.173 24.4C130.183 22.74 130.508 21.27 131.148 19.99C131.798 18.7 132.718 17.69 133.908 16.96C135.098 16.22 136.513 15.85 138.153 15.85C139.993 15.85 141.548 16.315 142.818 17.245C144.098 18.165 144.933 19.425 145.323 21.025L141.723 22C141.443 21.13 140.978 20.455 140.328 19.975C139.678 19.485 138.938 19.24 138.108 19.24C137.168 19.24 136.393 19.465 135.783 19.915C135.173 20.355 134.723 20.965 134.433 21.745C134.143 22.525 133.998 23.41 133.998 24.4C133.998 25.94 134.343 27.185 135.033 28.135C135.723 29.085 136.748 29.56 138.108 29.56C139.068 29.56 139.823 29.34 140.373 28.9C140.933 28.46 141.353 27.825 141.633 26.995L145.323 27.82C144.823 29.47 143.948 30.74 142.698 31.63C141.448 32.51 139.918 32.95 138.108 32.95ZM157.824 32.5C156.754 32.7 155.704 32.785 154.674 32.755C153.654 32.735 152.739 32.55 151.929 32.2C151.119 31.84 150.504 31.275 150.084 30.505C149.714 29.805 149.519 29.09 149.499 28.36C149.479 27.63 149.469 26.805 149.469 25.885V11.8H153.069V25.675C153.069 26.325 153.074 26.895 153.084 27.385C153.104 27.875 153.209 28.275 153.399 28.585C153.759 29.185 154.334 29.52 155.124 29.59C155.914 29.66 156.814 29.62 157.824 29.47V32.5ZM146.529 19.135V16.3H157.824V19.135H146.529ZM161.607 13.84V10.525H165.222V13.84H161.607ZM161.607 32.5V16.3H165.222V32.5H161.607ZM176.87 32.95C175.25 32.95 173.835 32.585 172.625 31.855C171.415 31.125 170.475 30.12 169.805 28.84C169.145 27.55 168.815 26.07 168.815 24.4C168.815 22.7 169.155 21.21 169.835 19.93C170.515 18.65 171.46 17.65 172.67 16.93C173.88 16.21 175.28 15.85 176.87 15.85C178.5 15.85 179.92 16.215 181.13 16.945C182.34 17.675 183.28 18.685 183.95 19.975C184.62 21.255 184.955 22.73 184.955 24.4C184.955 26.08 184.615 27.565 183.935 28.855C183.265 30.135 182.325 31.14 181.115 31.87C179.905 32.59 178.49 32.95 176.87 32.95ZM176.87 29.56C178.31 29.56 179.38 29.08 180.08 28.12C180.78 27.16 181.13 25.92 181.13 24.4C181.13 22.83 180.775 21.58 180.065 20.65C179.355 19.71 178.29 19.24 176.87 19.24C175.9 19.24 175.1 19.46 174.47 19.9C173.85 20.33 173.39 20.935 173.09 21.715C172.79 22.485 172.64 23.38 172.64 24.4C172.64 25.97 172.995 27.225 173.705 28.165C174.425 29.095 175.48 29.56 176.87 29.56ZM199.465 32.5V24.7C199.465 24.19 199.43 23.625 199.36 23.005C199.29 22.385 199.125 21.79 198.865 21.22C198.615 20.64 198.235 20.165 197.725 19.795C197.225 19.425 196.545 19.24 195.685 19.24C195.225 19.24 194.77 19.315 194.32 19.465C193.87 19.615 193.46 19.875 193.09 20.245C192.73 20.605 192.44 21.105 192.22 21.745C192 22.375 191.89 23.185 191.89 24.175L189.745 23.26C189.745 21.88 190.01 20.63 190.54 19.51C191.08 18.39 191.87 17.5 192.91 16.84C193.95 16.17 195.23 15.835 196.75 15.835C197.95 15.835 198.94 16.035 199.72 16.435C200.5 16.835 201.12 17.345 201.58 17.965C202.04 18.585 202.38 19.245 202.6 19.945C202.82 20.645 202.96 21.31 203.02 21.94C203.09 22.56 203.125 23.065 203.125 23.455V32.5H199.465ZM188.23 32.5V16.3H191.455V21.325H191.89V32.5H188.23ZM213.295 32.95C211.295 32.95 209.67 32.5 208.42 31.6C207.17 30.7 206.41 29.435 206.14 27.805L209.83 27.235C210.02 28.035 210.44 28.665 211.09 29.125C211.74 29.585 212.56 29.815 213.55 29.815C214.42 29.815 215.09 29.645 215.56 29.305C216.04 28.955 216.28 28.48 216.28 27.88C216.28 27.51 216.19 27.215 216.01 26.995C215.84 26.765 215.46 26.545 214.87 26.335C214.28 26.125 213.375 25.86 212.155 25.54C210.795 25.18 209.715 24.795 208.915 24.385C208.115 23.965 207.54 23.47 207.19 22.9C206.84 22.33 206.665 21.64 206.665 20.83C206.665 19.82 206.93 18.94 207.46 18.19C207.99 17.44 208.73 16.865 209.68 16.465C210.63 16.055 211.75 15.85 213.04 15.85C214.3 15.85 215.415 16.045 216.385 16.435C217.365 16.825 218.155 17.38 218.755 18.1C219.355 18.82 219.725 19.665 219.865 20.635L216.175 21.295C216.085 20.605 215.77 20.06 215.23 19.66C214.7 19.26 213.99 19.035 213.1 18.985C212.25 18.935 211.565 19.065 211.045 19.375C210.525 19.675 210.265 20.1 210.265 20.65C210.265 20.96 210.37 21.225 210.58 21.445C210.79 21.665 211.21 21.885 211.84 22.105C212.48 22.325 213.43 22.595 214.69 22.915C215.98 23.245 217.01 23.625 217.78 24.055C218.56 24.475 219.12 24.98 219.46 25.57C219.81 26.16 219.985 26.875 219.985 27.715C219.985 29.345 219.39 30.625 218.2 31.555C217.02 32.485 215.385 32.95 213.295 32.95Z" fill="#191D23"/>
</svg>
